<svg version="1.1" id="Layer_1" xmlns="http://www.w3.org/2000/svg" xmlns:xlink="http://www.w3.org/1999/xlink" x="0px" y="0px"
	 width="100%" viewBox="0 0 800 534" enable-background="new 0 0 800 534" xml:space="preserve">
<path fill="#DA291C" opacity="1.000000" stroke="none" 
	d="
M1.000000,534.000000 
	C1.000000,445.645782 1.000000,357.291534 1.460349,268.372986 
	C88.205147,267.791016 174.489594,267.775391 260.774048,267.745026 
	C263.100128,267.744202 265.426147,267.583618 268.223083,267.603699 
	C270.859741,267.724518 273.025452,267.752045 275.191193,267.752075 
	C448.302704,267.754059 621.414246,267.753021 794.525757,267.764099 
	C796.683838,267.764252 798.841919,267.917969 801.000000,268.000000 
	C801.000000,356.354218 801.000000,444.708466 800.542053,533.531372 
	C533.722717,534.000000 267.361359,534.000000 1.000000,534.000000 
z"/>
<path fill="#FFFFFF" opacity="1.000000" stroke="none" 
	d="
M801.000000,267.536133 
	C798.841919,267.917969 796.683838,267.764252 794.525757,267.764099 
	C621.414246,267.753021 448.302704,267.754059 275.191193,267.752075 
	C273.025452,267.752045 270.859741,267.724518 268.228088,267.168945 
	C267.759949,179.741943 267.756317,92.855804 267.765625,5.969667 
	C267.765808,4.313104 267.918488,2.656556 268.000000,1.000000 
	C445.571625,1.000000 623.143250,1.000000 801.000000,1.000000 
	C801.000000,89.690544 801.000000,178.381393 801.000000,267.536133 
z"/>
<path fill="#0132A0" opacity="1.000000" stroke="none" 
	d="
M267.531342,1.000000 
	C267.918488,2.656556 267.765808,4.313104 267.765625,5.969667 
	C267.756317,92.855804 267.759949,179.741943 267.757202,267.062805 
	C265.426147,267.583618 263.100128,267.744202 260.774048,267.745026 
	C174.489594,267.775391 88.205147,267.791016 1.460349,267.904297 
	C1.000000,179.072968 1.000000,90.145927 1.000000,1.000000 
	C89.687439,1.000000 178.375061,1.000000 267.531342,1.000000 
M171.983231,183.482452 
	C168.963043,174.160324 165.924591,164.844070 162.930847,155.513458 
	C161.564423,151.254745 158.330795,146.301025 159.499039,142.874619 
	C160.753677,139.194763 166.096863,136.823990 169.803986,134.082123 
	C178.661880,127.530647 187.606796,121.096840 197.619308,113.813362 
	C182.061157,113.813362 167.945190,113.697357 153.833725,113.897675 
	C150.448273,113.945732 148.927856,113.023369 147.896591,109.674957 
	C143.679077,95.981056 139.113815,82.394234 134.445221,68.057419 
	C133.751770,69.863602 133.293808,70.913681 132.940720,71.997925 
	C128.929474,84.315231 124.758354,96.584991 121.037270,108.989647 
	C119.854340,112.933083 118.018936,114.012878 114.029785,113.918091 
	C101.880051,113.629387 89.719093,113.813400 77.562500,113.813408 
	C75.845757,113.813408 74.129005,113.813408 71.102211,113.813408 
	C84.919662,123.873657 97.498367,133.031998 110.079926,142.192413 
	C105.198204,157.306992 100.439697,172.040070 95.215767,188.214172 
	C109.156242,178.110184 121.767853,168.969330 134.373856,159.832565 
	C147.269485,169.184021 159.857849,178.312637 173.336090,188.086578 
	C172.722046,186.073669 172.443817,185.161621 171.983231,183.482452 
z"/>
<path fill="#E98077" opacity="1.000000" stroke="none" 
	d="
M1.000000,534.500000 
	C267.361359,534.000000 533.722717,534.000000 800.542053,534.000000 
	C800.833618,534.333313 800.684692,534.943848 800.498108,534.955566 
	C799.170837,535.039001 797.835938,535.000000 796.503418,535.000000 
	C531.335632,535.000000 266.167816,535.000000 1.000000,534.500000 
z"/>
<path fill="#FDFDFE" opacity="1.000000" stroke="none" 
	d="
M172.074417,183.866013 
	C172.443817,185.161621 172.722046,186.073669 173.336090,188.086578 
	C159.857849,178.312637 147.269485,169.184021 134.373856,159.832565 
	C121.767853,168.969330 109.156242,178.110184 95.215767,188.214172 
	C100.439697,172.040070 105.198204,157.306992 110.079926,142.192413 
	C97.498367,133.031998 84.919662,123.873657 71.102211,113.813408 
	C74.129005,113.813408 75.845757,113.813408 77.562500,113.813408 
	C89.719093,113.813400 101.880051,113.629387 114.029785,113.918091 
	C118.018936,114.012878 119.854340,112.933083 121.037270,108.989647 
	C124.758354,96.584991 128.929474,84.315231 132.940720,71.997925 
	C133.293808,70.913681 133.751770,69.863602 134.445221,68.057419 
	C139.113815,82.394234 143.679077,95.981056 147.896591,109.674957 
	C148.927856,113.023369 150.448273,113.945732 153.833725,113.897675 
	C167.945190,113.697357 182.061157,113.813362 197.619308,113.813362 
	C187.606796,121.096840 178.661880,127.530647 169.803986,134.082123 
	C166.096863,136.823990 160.753677,139.194763 159.499039,142.874619 
	C158.330795,146.301025 161.564423,151.254745 162.930847,155.513458 
	C165.924591,164.844070 168.963043,174.160324 172.074417,183.866013 
z"/>
</svg>