<svg version="1.1" id="Layer_1" xmlns="http://www.w3.org/2000/svg" xmlns:xlink="http://www.w3.org/1999/xlink" x="0px" y="0px"
	 width="100%" viewBox="0 0 1280 854" enable-background="new 0 0 1280 854" xml:space="preserve">
<path fill="#FFFFFF" opacity="1.000000" stroke="none" 
	d="
M1281.000000,191.000000 
	C1281.000000,222.023331 1281.000000,253.046646 1280.554443,284.694153 
	C1277.942749,285.339172 1275.776489,285.378265 1273.610352,285.378296 
	C1009.611755,285.381042 745.613159,285.380890 481.614532,285.380890 
	C479.504150,285.380890 477.393738,285.380890 475.319458,285.380890 
	C475.319458,317.312256 475.319458,348.578217 475.319458,380.175842 
	C477.738831,380.175842 479.877808,380.175842 482.016754,380.175842 
	C746.348694,380.175842 1010.680603,380.176239 1275.012573,380.168579 
	C1277.008423,380.168518 1279.004150,380.058594 1281.000000,380.000000 
	C1281.000000,411.356659 1281.000000,442.713318 1280.540527,474.551331 
	C854.886719,475.033966 429.692474,475.035278 4.498268,475.035034 
	C3.332178,475.035034 2.166089,475.012177 1.000000,475.000000 
	C1.000000,317.036743 1.000000,159.073502 1.000000,1.055121 
	C427.666656,1.055121 854.333313,1.055121 1281.000000,1.055121 
	C1281.000000,32.417953 1281.000000,63.743965 1280.533447,95.485306 
	C1011.864258,95.900635 743.661438,95.900635 475.426147,95.900635 
	C475.426147,127.736763 475.426147,159.090698 475.426147,190.717270 
	C477.962189,190.717270 480.110565,190.717255 482.258942,190.717255 
	C746.350464,190.717255 1010.442017,190.716599 1274.533569,190.728958 
	C1276.689087,190.729050 1278.844482,190.905762 1281.000000,191.000000 
M123.469284,272.962250 
	C118.255623,278.784698 112.842018,284.442657 107.880821,290.472839 
	C102.160057,297.426178 95.156441,301.607727 86.099846,301.987366 
	C82.182640,302.151550 78.252823,302.014893 74.328735,302.014893 
	C87.121666,310.502411 100.287491,314.950714 114.799881,306.824768 
	C119.007790,304.468597 123.193413,302.070923 127.435699,299.778259 
	C137.934082,294.104492 149.068909,290.845062 162.186935,290.669159 
	C145.034882,315.482300 128.424789,339.511414 111.814705,363.540558 
	C112.080353,363.759796 112.345993,363.979034 112.611641,364.198303 
	C137.565475,346.938904 162.519318,329.679535 187.935272,312.100525 
	C187.935272,313.372437 188.073349,313.903534 187.915375,314.323151 
	C181.432877,331.541168 179.704102,349.166077 182.844299,367.343842 
	C184.413284,376.426331 181.739944,384.487030 175.421204,391.257416 
	C172.842712,394.020233 170.204239,396.727112 166.591995,400.506927 
	C171.186142,398.942413 174.481323,397.933075 177.693436,396.706207 
	C189.360672,392.249756 197.193344,384.318695 200.087463,371.891693 
	C200.953735,368.172028 202.036087,364.498199 203.133453,360.837555 
	C206.703629,348.928070 212.396774,338.251801 221.633728,328.847504 
	C227.027267,358.414978 232.295456,387.295319 237.563644,416.175659 
	C237.890793,416.127319 238.217926,416.078979 238.545074,416.030640 
	C244.043427,385.826294 249.541779,355.621948 255.162704,324.744263 
	C258.368927,330.420990 261.060883,335.537476 264.077393,340.454895 
	C270.344696,350.671692 278.618744,359.096039 288.235016,366.150635 
	C298.188416,373.452606 302.915985,383.060211 302.145782,395.394806 
	C302.011475,397.545837 302.126770,399.712463 302.126770,403.001465 
	C312.439209,386.809662 314.319702,371.870880 304.150635,356.044250 
	C299.624878,349.000641 296.350281,340.992249 293.552032,333.053711 
	C291.546783,327.364899 291.276093,321.064697 290.231506,315.037262 
	C290.709442,314.866302 291.187408,314.695312 291.665344,314.524323 
	C315.607666,331.082458 339.549988,347.640564 363.492310,364.198700 
	C363.725128,363.938232 363.957947,363.677734 364.190765,363.417267 
	C346.885559,338.404602 329.580383,313.391907 312.032990,288.029175 
	C313.138336,288.029175 313.679108,287.889313 314.108002,288.049316 
	C331.188080,294.421478 348.710419,295.899658 366.688599,293.088745 
	C377.638275,291.376678 386.596344,295.402557 394.078094,303.240631 
	C394.997284,304.203583 395.934845,305.151642 396.906616,306.060974 
	C397.754181,306.854095 398.662018,307.582764 399.806641,308.566284 
	C395.915283,289.839111 385.762451,278.134796 366.845612,274.449402 
	C354.468079,272.038025 343.173004,266.701233 333.349884,258.587555 
	C331.917969,257.404846 330.585541,256.101685 328.787903,254.474960 
	C358.563049,249.044495 387.347046,243.794800 416.131042,238.545090 
	C416.108917,238.195526 416.086792,237.845963 416.064667,237.496399 
	C385.796143,231.976349 355.527618,226.456299 325.259094,220.936234 
	C343.825714,212.310669 357.652313,198.621964 370.145630,183.205704 
	C375.770782,176.264450 383.797485,174.051620 392.466766,173.915009 
	C395.580200,173.865936 398.695038,173.907120 401.809235,173.907120 
	C400.211884,172.138077 398.665283,171.164230 397.047668,170.327560 
	C383.640564,163.392715 370.407471,162.661102 357.355927,171.328659 
	C354.453674,173.256027 351.339752,174.881317 348.250336,176.507156 
	C337.840942,181.985153 326.839203,185.209641 313.910187,185.357819 
	C331.012634,160.607712 347.620117,136.573837 364.227631,112.539970 
	C363.964661,112.325302 363.701660,112.110641 363.438690,111.895973 
	C338.572235,129.093567 313.705780,146.291168 288.839325,163.488770 
	C288.139923,161.894318 288.229095,161.267822 288.441254,160.686172 
	C294.440948,144.237366 296.247650,127.412239 293.253448,110.089188 
	C291.336792,99.000404 295.060394,89.792366 303.095245,82.135666 
	C304.634796,80.668564 306.018707,79.038132 307.474426,77.483055 
	C292.346039,80.423187 280.604889,87.124359 276.321381,102.753654 
	C274.608856,109.002251 272.954407,115.289452 270.783234,121.384438 
	C267.367126,130.974350 262.064484,139.454330 254.431198,147.211472 
	C249.040314,117.612579 243.788849,88.779167 238.537384,59.945759 
	C238.210403,59.929134 237.883423,59.912510 237.556458,59.895889 
	C232.046631,90.098557 226.536819,120.301224 221.027008,150.503891 
	C212.425873,132.854874 199.184235,119.674522 184.586884,107.568703 
	C177.369919,101.583549 174.146881,93.531914 173.951279,84.238075 
	C173.880783,80.888870 173.939972,77.536942 173.939972,73.052414 
	C163.844757,88.968163 161.367661,103.867744 171.704010,119.398926 
	C174.726776,123.940872 177.185913,128.922791 179.393677,133.927887 
	C183.197144,142.550491 185.401718,151.581406 185.248230,162.075623 
	C160.486542,144.954483 136.516922,128.381027 112.547318,111.807556 
	C112.305305,112.049019 112.063301,112.290489 111.821289,112.531960 
	C129.077591,137.481674 146.333893,162.431396 163.590179,187.381104 
	C163.343857,187.719788 163.097519,188.058456 162.851181,188.397141 
	C144.541763,180.766586 125.670837,180.051987 106.415382,182.951431 
	C97.919716,184.230667 90.660141,180.939316 84.632416,175.127792 
	C81.978401,172.568939 79.905746,169.407135 77.569138,166.519073 
	C77.072441,166.972763 76.575745,167.426453 76.079048,167.880142 
	C76.883614,170.389557 77.661125,172.908020 78.497261,175.406876 
	C82.959183,188.741760 91.631439,197.511719 105.653374,200.561661 
	C108.897827,201.267395 112.099358,202.198502 115.282539,203.152969 
	C127.187798,206.722733 137.858170,212.415970 147.288925,221.648819 
	C117.658058,227.050003 88.753090,232.318863 59.848122,237.587738 
	C59.891945,237.897247 59.935768,238.206772 59.979588,238.516281 
	C90.109497,244.001678 120.239410,249.487076 149.808319,254.870346 
	C141.201096,260.745087 132.599289,266.616180 123.469284,272.962250 
M308.405212,76.256912 
	C308.297180,76.326782 308.189117,76.396645 308.081085,76.466507 
	C308.163483,76.565193 308.236053,76.729881 308.331085,76.744072 
	C308.426727,76.758362 308.544769,76.623039 308.405212,76.256912 
z"/>
<path fill="#0139A8" opacity="1.000000" stroke="none" 
	d="
M1281.000000,665.000000 
	C1281.000000,696.354248 1281.000000,727.708435 1280.560791,759.351685 
	C1278.955933,759.616028 1277.790283,759.569641 1276.624512,759.569641 
	C853.058350,759.566528 429.492157,759.565979 5.925979,759.584351 
	C4.283979,759.584412 2.641992,759.855469 0.999999,760.000000 
	C1.000000,728.645752 1.000000,697.291565 1.459767,665.379028 
	C2.585853,664.811279 3.252172,664.793579 3.918492,664.793579 
	C428.118683,664.792297 852.318848,664.791992 1276.519043,664.800659 
	C1278.012695,664.800659 1279.506348,664.930664 1281.000000,665.000000 
z"/>
<path fill="#FEFEFF" opacity="1.000000" stroke="none" 
	d="
M1281.000000,664.533020 
	C1279.506348,664.930664 1278.012695,664.800659 1276.519043,664.800659 
	C852.318848,664.791992 428.118683,664.792297 3.918492,664.793579 
	C3.252172,664.793579 2.585853,664.811279 1.459767,664.910400 
	C1.000000,633.644653 1.000000,602.289307 1.459131,570.441284 
	C427.113037,569.946594 852.307800,569.944458 1277.502563,569.944885 
	C1278.668335,569.944885 1279.834229,569.980835 1281.000000,570.000000 
	C1281.000000,601.355347 1281.000000,632.710693 1281.000000,664.533020 
z"/>
<path fill="#0038A8" opacity="1.000000" stroke="none" 
	d="
M1281.000000,569.540283 
	C1279.834229,569.980835 1278.668335,569.944885 1277.502563,569.944885 
	C852.307800,569.944458 427.113037,569.946594 1.459131,569.974304 
	C1.000000,538.639771 1.000000,507.279602 1.000000,475.459717 
	C2.166089,475.012177 3.332178,475.035034 4.498268,475.035034 
	C429.692474,475.035278 854.886719,475.033966 1280.540527,475.016357 
	C1281.000000,506.360199 1281.000000,537.720398 1281.000000,569.540283 
z"/>
<path fill="#FFFFFF" opacity="1.000000" stroke="none" 
	d="
M0.999999,760.468628 
	C2.641992,759.855469 4.283979,759.584412 5.925979,759.584351 
	C429.492157,759.565979 853.058350,759.566528 1276.624512,759.569641 
	C1277.790283,759.569641 1278.955933,759.616028 1280.560791,759.820312 
	C1281.000000,791.657227 1281.000000,823.314514 1281.000000,854.954773 
	C854.333313,854.954773 427.666656,854.954773 1.000000,854.954773 
	C1.000000,823.585449 1.000000,792.261414 0.999999,760.468628 
z"/>
<path fill="#0139A8" opacity="1.000000" stroke="none" 
	d="
M1281.000000,379.531342 
	C1279.004150,380.058594 1277.008423,380.168518 1275.012573,380.168579 
	C1010.680603,380.176239 746.348694,380.175842 482.016754,380.175842 
	C479.877808,380.175842 477.738831,380.175842 475.319458,380.175842 
	C475.319458,348.578217 475.319458,317.312256 475.319458,285.380890 
	C477.393738,285.380890 479.504150,285.380890 481.614532,285.380890 
	C745.613159,285.380890 1009.611755,285.381042 1273.610352,285.378296 
	C1275.776489,285.378265 1277.942749,285.339172 1280.554443,285.159180 
	C1281.000000,316.354218 1281.000000,347.708466 1281.000000,379.531342 
z"/>
<path fill="#0139A8" opacity="1.000000" stroke="none" 
	d="
M1281.000000,190.531342 
	C1278.844482,190.905762 1276.689087,190.729050 1274.533569,190.728958 
	C1010.442017,190.716599 746.350464,190.717255 482.258942,190.717255 
	C480.110565,190.717255 477.962189,190.717270 475.426147,190.717270 
	C475.426147,159.090698 475.426147,127.736763 475.426147,95.900635 
	C743.661438,95.900635 1011.864258,95.900635 1280.533447,95.950317 
	C1281.000000,127.354225 1281.000000,158.708450 1281.000000,190.531342 
z"/>
<path fill="#7F4404" opacity="1.000000" stroke="none" 
	d="
M123.733376,272.724731 
	C132.599289,266.616180 141.201096,260.745087 149.808319,254.870346 
	C120.239410,249.487076 90.109497,244.001678 59.979588,238.516281 
	C59.935768,238.206772 59.891945,237.897247 59.848122,237.587738 
	C88.753090,232.318863 117.658058,227.050003 147.288925,221.648819 
	C137.858170,212.415970 127.187798,206.722733 115.282539,203.152969 
	C112.099358,202.198502 108.897827,201.267395 105.653374,200.561661 
	C91.631439,197.511719 82.959183,188.741760 78.497261,175.406876 
	C77.661125,172.908020 76.883614,170.389557 76.079048,167.880142 
	C76.575745,167.426453 77.072441,166.972763 77.569138,166.519073 
	C79.905746,169.407135 81.978401,172.568939 84.632416,175.127792 
	C90.660141,180.939316 97.919716,184.230667 106.415382,182.951431 
	C125.670837,180.051987 144.541763,180.766586 162.851181,188.397141 
	C163.097519,188.058456 163.343857,187.719788 163.590179,187.381104 
	C146.333893,162.431396 129.077591,137.481674 111.821289,112.531960 
	C112.063301,112.290489 112.305305,112.049019 112.547318,111.807556 
	C136.516922,128.381027 160.486542,144.954483 185.248230,162.075623 
	C185.401718,151.581406 183.197144,142.550491 179.393677,133.927887 
	C177.185913,128.922791 174.726776,123.940872 171.704010,119.398926 
	C161.367661,103.867744 163.844757,88.968163 173.939972,73.052414 
	C173.939972,77.536942 173.880783,80.888870 173.951279,84.238075 
	C174.146881,93.531914 177.369919,101.583549 184.586884,107.568703 
	C199.184235,119.674522 212.425873,132.854874 221.027008,150.503891 
	C226.536819,120.301224 232.046631,90.098557 237.556458,59.895889 
	C237.883423,59.912510 238.210403,59.929134 238.537384,59.945759 
	C243.788849,88.779167 249.040314,117.612579 254.431198,147.211472 
	C262.064484,139.454330 267.367126,130.974350 270.783234,121.384438 
	C272.954407,115.289452 274.608856,109.002251 276.321381,102.753654 
	C280.604889,87.124359 292.346039,80.423187 307.474426,77.483055 
	C306.018707,79.038132 304.634796,80.668564 303.095245,82.135666 
	C295.060394,89.792366 291.336792,99.000404 293.253448,110.089188 
	C296.247650,127.412239 294.440948,144.237366 288.441254,160.686172 
	C288.229095,161.267822 288.139923,161.894318 288.839325,163.488770 
	C313.705780,146.291168 338.572235,129.093567 363.438690,111.895973 
	C363.701660,112.110641 363.964661,112.325302 364.227631,112.539970 
	C347.620117,136.573837 331.012634,160.607712 313.910187,185.357819 
	C326.839203,185.209641 337.840942,181.985153 348.250336,176.507156 
	C351.339752,174.881317 354.453674,173.256027 357.355927,171.328659 
	C370.407471,162.661102 383.640564,163.392715 397.047668,170.327560 
	C398.665283,171.164230 400.211884,172.138077 401.809235,173.907120 
	C398.695038,173.907120 395.580200,173.865936 392.466766,173.915009 
	C383.797485,174.051620 375.770782,176.264450 370.145630,183.205704 
	C357.652313,198.621964 343.825714,212.310669 325.259094,220.936234 
	C355.527618,226.456299 385.796143,231.976349 416.064667,237.496399 
	C416.086792,237.845963 416.108917,238.195526 416.131042,238.545090 
	C387.347046,243.794800 358.563049,249.044495 328.787903,254.474960 
	C330.585541,256.101685 331.917969,257.404846 333.349884,258.587555 
	C343.173004,266.701233 354.468079,272.038025 366.845612,274.449402 
	C385.762451,278.134796 395.915283,289.839111 399.806641,308.566284 
	C398.662018,307.582764 397.754181,306.854095 396.906616,306.060974 
	C395.934845,305.151642 394.997284,304.203583 394.078094,303.240631 
	C386.596344,295.402557 377.638275,291.376678 366.688599,293.088745 
	C348.710419,295.899658 331.188080,294.421478 314.108002,288.049316 
	C313.679108,287.889313 313.138336,288.029175 312.032990,288.029175 
	C329.580383,313.391907 346.885559,338.404602 364.190765,363.417267 
	C363.957947,363.677734 363.725128,363.938232 363.492310,364.198700 
	C339.549988,347.640564 315.607666,331.082458 291.665344,314.524323 
	C291.187408,314.695312 290.709442,314.866302 290.231506,315.037262 
	C291.276093,321.064697 291.546783,327.364899 293.552032,333.053711 
	C296.350281,340.992249 299.624878,349.000641 304.150635,356.044250 
	C314.319702,371.870880 312.439209,386.809662 302.126770,403.001465 
	C302.126770,399.712463 302.011475,397.545837 302.145782,395.394806 
	C302.915985,383.060211 298.188416,373.452606 288.235016,366.150635 
	C278.618744,359.096039 270.344696,350.671692 264.077393,340.454895 
	C261.060883,335.537476 258.368927,330.420990 255.162704,324.744263 
	C249.541779,355.621948 244.043427,385.826294 238.545074,416.030640 
	C238.217926,416.078979 237.890793,416.127319 237.563644,416.175659 
	C232.295456,387.295319 227.027267,358.414978 221.633728,328.847504 
	C212.396774,338.251801 206.703629,348.928070 203.133453,360.837555 
	C202.036087,364.498199 200.953735,368.172028 200.087463,371.891693 
	C197.193344,384.318695 189.360672,392.249756 177.693436,396.706207 
	C174.481323,397.933075 171.186142,398.942413 166.591995,400.506927 
	C170.204239,396.727112 172.842712,394.020233 175.421204,391.257416 
	C181.739944,384.487030 184.413284,376.426331 182.844299,367.343842 
	C179.704102,349.166077 181.432877,331.541168 187.915375,314.323151 
	C188.073349,313.903534 187.935272,313.372437 187.935272,312.100525 
	C162.519318,329.679535 137.565475,346.938904 112.611641,364.198303 
	C112.345993,363.979034 112.080353,363.759796 111.814705,363.540558 
	C128.424789,339.511414 145.034882,315.482300 162.186935,290.669159 
	C149.068909,290.845062 137.934082,294.104492 127.435699,299.778259 
	C123.193413,302.070923 119.007790,304.468597 114.799881,306.824768 
	C100.287491,314.950714 87.121666,310.502411 74.328735,302.014893 
	C78.252823,302.014893 82.182640,302.151550 86.099846,301.987366 
	C95.156441,301.607727 102.160057,297.426178 107.880821,290.472839 
	C112.842018,284.442657 118.255623,278.784698 123.733376,272.724731 
M343.477600,135.067307 
	C343.282562,135.339554 343.087524,135.611801 342.382050,136.108246 
	C342.061066,136.547501 341.740051,136.986755 340.834076,137.737900 
	C321.049164,157.738678 301.264252,177.739456 281.559418,197.659286 
	C284.721313,202.228851 288.011810,206.984238 291.517670,212.050888 
	C296.971344,204.191986 302.304474,196.574203 307.567719,188.908447 
	C319.153931,172.033463 330.704926,155.134262 342.718109,137.916428 
	C342.945312,137.416733 343.172485,136.917038 343.812531,136.059677 
	C343.884918,135.716187 343.957306,135.372696 344.513306,135.023697 
	C344.501740,134.762421 344.490173,134.501129 344.478668,134.239868 
	C344.314667,134.488144 344.150665,134.736420 343.477600,135.067307 
M339.961609,343.767365 
	C340.196777,343.746613 340.431915,343.725891 340.667084,343.705139 
	C340.495361,343.423126 340.323669,343.141113 339.918701,342.348969 
	C339.473175,342.034454 339.027679,341.719940 338.291138,340.808838 
	C318.288879,321.025543 298.286621,301.242218 278.358673,281.532410 
	C273.834534,284.677948 269.089478,287.977081 264.046051,291.483673 
	C271.477142,296.642975 278.683167,301.689209 285.933380,306.671204 
	C303.208191,318.541504 320.503845,330.381470 338.103088,342.697144 
	C338.603485,342.931671 339.103882,343.166168 339.961609,343.767365 
M133.671295,339.935333 
	C133.981522,339.486877 134.291748,339.038422 135.204956,338.310547 
	C154.985123,318.309235 174.765274,298.307892 194.533478,278.318665 
	C191.392014,273.827271 188.084457,269.098450 184.556824,264.054962 
	C180.709763,269.582764 176.993073,274.868500 173.332550,280.192841 
	C160.135971,299.387665 146.958328,318.595490 133.310699,338.112610 
	C133.080246,338.616119 132.849777,339.119598 132.241165,339.977478 
	C132.259781,340.214508 132.278381,340.451508 132.296997,340.688538 
	C132.585220,340.516571 132.873444,340.344604 133.671295,339.935333 
M136.039459,132.234009 
	C135.805298,132.250092 135.571121,132.266174 135.336960,132.282257 
	C135.512817,132.562988 135.688660,132.843719 136.089020,133.635071 
	C136.529419,133.952927 136.969803,134.270767 137.714218,135.178955 
	C157.726791,154.963852 177.739365,174.748764 197.740295,194.522156 
	C202.233627,191.376770 206.971069,188.060501 212.026367,184.521729 
	C207.454819,181.345764 203.117447,178.305771 198.753098,175.305054 
	C178.587845,161.440323 158.415070,147.586517 137.907059,133.283264 
	C137.400177,133.060226 136.893295,132.837189 136.039459,132.234009 
M177.045776,104.179199 
	C176.372513,103.461449 175.699234,102.743698 175.025970,102.025955 
	C174.807693,102.211617 174.589417,102.397278 174.371140,102.582939 
	C175.078705,103.556091 175.786270,104.529243 176.674988,106.172211 
	C177.789215,108.013069 178.777252,109.945587 180.037384,111.680481 
	C191.559555,127.543671 203.343079,143.246613 210.339584,161.837585 
	C212.142624,166.628632 213.812973,171.469620 215.544281,176.287659 
	C217.482178,170.176056 218.664017,164.195541 219.645493,158.182327 
	C219.813568,157.152664 219.375046,155.827820 218.795959,154.902771 
	C213.175522,145.924667 208.290359,136.313522 201.555954,128.252670 
	C194.373596,119.655647 185.419342,112.538948 177.045776,104.179199 
M371.089935,175.907074 
	C363.289551,181.270966 355.426636,186.546539 347.702240,192.017670 
	C332.975342,202.448547 316.988068,210.286118 299.655884,215.851929 
	C305.635834,217.391159 311.588501,218.520432 317.566498,219.494629 
	C318.458282,219.639969 319.522461,219.180054 320.416412,218.791809 
	C335.883026,212.074493 349.567627,202.928574 360.405334,189.783493 
	C364.200134,185.180786 368.387482,180.901703 372.886871,176.242416 
	C373.054138,175.922150 373.221405,175.601883 373.388672,175.281586 
	C372.848663,175.434341 372.308655,175.587082 371.089935,175.907074 
M296.929291,265.771515 
	C296.868164,265.777130 296.807007,265.782715 296.745880,265.788330 
	C296.839294,265.856476 296.932739,265.924652 297.242004,266.637909 
	C299.872009,270.474365 302.203918,274.569489 305.232727,278.059875 
	C307.392273,280.548523 310.224579,282.799103 313.209442,284.170380 
	C334.455170,293.931000 356.807465,291.010468 379.108734,289.143463 
	C374.911530,287.854218 370.662170,286.681732 366.335449,286.001495 
	C348.954529,283.268890 331.539124,280.716217 315.142731,273.868927 
	C309.056641,271.327332 303.025177,268.654968 296.929291,265.771515 
M267.818970,177.995758 
	C270.295044,176.310898 272.635986,174.366013 275.274963,172.994568 
	C281.013214,170.012497 283.791443,165.116333 285.797485,159.203781 
	C291.980316,140.980850 293.326080,120.626656 289.283875,96.066704 
	C288.355377,99.431534 287.469818,101.904404 287.004974,104.453972 
	C285.096924,114.918938 284.224854,125.671463 281.270569,135.823151 
	C277.153473,149.970627 271.514191,163.675125 266.213837,177.924286 
	C266.290710,178.190216 266.367584,178.456146 266.444458,178.722076 
	C266.679657,178.535721 266.914856,178.349365 267.818970,177.995758 
M209.367783,297.251862 
	C205.941040,299.610016 202.448471,301.879578 199.111481,304.358551 
	C197.006180,305.922516 194.246872,307.415314 193.300507,309.598663 
	C187.225296,323.615112 183.550278,338.215881 184.513428,353.662415 
	C185.051788,362.296478 185.795624,370.917786 186.467117,379.812744 
	C186.967163,378.515594 187.696579,377.153687 188.014618,375.701660 
	C189.079926,370.837982 190.261993,365.977661 190.926163,361.052277 
	C193.494385,342.006989 197.852768,323.484955 206.127579,306.021973 
	C207.529480,303.063446 208.687027,299.989166 210.221252,296.929688 
	C210.149445,296.961395 210.077637,296.993103 209.367783,297.251862 
M202.531616,194.975342 
	C188.710648,206.911743 181.435257,222.040909 182.290039,240.265091 
	C183.992676,276.565552 217.072266,297.716278 246.434235,293.231842 
	C284.687195,287.389496 306.068054,243.692627 286.431732,210.225464 
	C269.524139,181.408981 231.140549,172.505524 202.531616,194.975342 
M251.897552,150.644089 
	C248.129852,130.104935 244.362137,109.565788 240.594421,89.026642 
	C240.424942,89.044884 240.255447,89.063126 240.085968,89.081367 
	C240.085968,118.921997 240.085968,148.762619 240.085968,178.616760 
	C245.827957,179.669205 251.274780,180.667542 257.444672,181.798416 
	C255.564453,171.351654 253.778122,161.426620 251.897552,150.644089 
M353.287628,246.875580 
	C364.513641,244.782990 375.739624,242.690399 386.965637,240.597809 
	C386.949646,240.423477 386.933624,240.249130 386.917633,240.074799 
	C357.098999,240.074799 327.280334,240.074799 297.430847,240.074799 
	C296.364166,245.809616 295.349976,251.262238 294.192871,257.483154 
	C313.951965,253.916962 333.191040,250.444641 353.287628,246.875580 
M225.440628,332.037018 
	C228.733017,350.096954 232.025406,368.156891 235.317795,386.216827 
	C235.543976,386.186340 235.770142,386.155853 235.996307,386.125397 
	C235.996307,356.595062 235.996307,327.064728 235.996307,297.452728 
	C230.291626,296.373627 224.835236,295.341492 218.658157,294.173035 
	C220.896561,306.801270 223.059128,319.001495 225.440628,332.037018 
M160.956406,222.408539 
	C137.292770,226.720230 113.629143,231.031906 89.965508,235.343582 
	C89.999565,235.542603 90.033623,235.741623 90.067680,235.940643 
	C119.591820,235.940643 149.115952,235.940643 178.621780,235.940643 
	C179.685822,230.177475 180.689529,224.741028 181.802734,218.711487 
	C174.790314,219.932114 168.291595,221.063324 160.956406,222.408539 
M168.865448,205.591217 
	C172.000519,207.085251 175.135605,208.579285 178.270676,210.073318 
	C176.851807,206.534927 174.663422,203.958817 173.151215,201.033188 
	C170.011810,194.959412 164.924454,192.003326 158.608429,189.971756 
	C139.412689,183.797302 117.834167,182.461517 94.635223,186.924637 
	C120.227814,192.564575 145.466354,194.037964 168.865448,205.591217 
M135.068710,279.539581 
	C147.880478,271.125427 161.800293,265.075684 176.430313,260.150421 
	C170.733322,258.663116 165.088684,257.545349 159.403122,256.704163 
	C157.868088,256.477081 156.057327,256.742889 154.630157,257.368652 
	C139.665970,263.929840 126.171478,272.507172 115.793518,285.483704 
	C111.466858,290.893738 106.666115,295.924591 101.371353,301.933105 
	C113.984756,296.061768 123.404327,286.699066 135.068710,279.539581 
M267.608826,318.854248 
	C265.213928,312.505157 262.819031,306.156097 259.940216,298.524078 
	C258.663666,305.520752 257.553955,311.186127 256.651245,316.884308 
	C256.458954,318.098175 256.772736,319.537964 257.271210,320.693359 
	C263.386932,334.868622 271.280365,347.804871 283.204224,357.969666 
	C289.268555,363.139404 295.157013,368.515503 301.124969,373.798309 
	C299.272797,369.633331 296.983337,365.506317 294.206177,361.738770 
	C284.340485,348.354889 274.593597,334.915588 267.608826,318.854248 
z"/>
<path fill="#7F4404" opacity="1.000000" stroke="none" 
	d="
M308.529114,76.405098 
	C308.544769,76.623039 308.426727,76.758362 308.331085,76.744072 
	C308.236053,76.729881 308.163483,76.565193 308.081085,76.466507 
	C308.189117,76.396645 308.297180,76.326782 308.529114,76.405098 
z"/>
<path fill="#FACF16" opacity="1.000000" stroke="none" 
	d="
M202.808441,194.749390 
	C231.140549,172.505524 269.524139,181.408981 286.431732,210.225464 
	C306.068054,243.692627 284.687195,287.389496 246.434235,293.231842 
	C217.072266,297.716278 183.992676,276.565552 182.290039,240.265091 
	C181.435257,222.040909 188.710648,206.911743 202.808441,194.749390 
M218.773056,253.175888 
	C228.392502,248.795792 238.748856,256.016144 248.403030,251.329193 
	C249.233917,250.925797 250.631210,251.718323 251.771973,251.917664 
	C253.857101,252.282013 255.947159,252.618210 257.959167,253.362701 
	C258.165588,253.393814 258.371979,253.424911 258.578400,253.456009 
	C258.379120,253.308945 258.179840,253.161880 257.772552,252.354843 
	C254.212952,249.214874 250.653366,246.074890 247.276062,243.095718 
	C247.498337,244.293945 247.781097,245.818146 247.953918,246.749802 
	C241.122925,251.340668 234.658844,250.388107 227.946335,247.067734 
	C228.190186,245.627106 228.449265,244.096481 228.776459,242.163391 
	C228.015320,242.782043 227.298447,243.072983 227.105499,243.568115 
	C225.680695,247.223923 223.760925,250.273941 219.531067,251.190384 
	C218.924927,251.321701 218.520676,252.384888 217.662888,253.145111 
	C217.702591,253.303757 217.742310,253.462402 217.782028,253.621048 
	C217.841278,253.401077 217.900528,253.181122 218.773056,253.175888 
M218.137009,266.692413 
	C231.377884,275.461334 244.638016,275.337891 258.482300,266.647675 
	C259.425873,265.606018 260.369415,264.564331 261.402740,263.423584 
	C245.573639,258.094971 230.248642,257.998505 214.292480,263.620056 
	C215.841522,264.659058 216.867767,265.347382 218.137009,266.692413 
M255.028442,227.156845 
	C253.516678,226.454102 252.004913,225.751343 250.058350,224.846481 
	C251.471313,231.674179 261.767181,232.947449 269.484467,227.860626 
	C269.649323,227.563980 269.814178,227.267334 270.598663,226.693817 
	C271.407806,225.013916 272.216949,223.334030 273.077728,221.546951 
	C268.489258,216.529358 261.167511,215.754990 253.406418,218.135712 
	C251.231262,218.802933 249.568756,221.141357 247.671112,222.713196 
	C248.039825,223.132706 248.408554,223.552216 248.777267,223.971725 
	C250.216537,222.987000 251.655807,222.002274 253.131577,220.992569 
	C254.206909,223.151367 255.146210,225.037125 255.908539,227.092834 
	C255.908539,227.092834 255.732635,227.263962 255.028442,227.156845 
M220.126236,227.127823 
	C220.126236,227.127823 219.889862,226.901199 220.166519,226.257782 
	C221.050003,224.561020 221.933502,222.864258 222.875198,221.055695 
	C224.494461,222.089218 225.927887,223.004135 227.684097,224.125076 
	C225.377411,215.344788 210.895340,214.398819 203.440857,221.772461 
	C206.062378,230.757507 212.458282,232.469086 220.464096,230.389038 
	C222.826340,229.775269 226.132156,229.522247 226.054153,224.935486 
	C223.833771,225.880096 222.096207,226.619308 220.126236,227.127823 
M257.200684,212.313324 
	C264.626068,213.305847 272.051453,214.298370 279.600433,215.307419 
	C268.541443,203.702042 248.904083,205.226227 244.930832,217.680847 
	C248.673019,216.006836 252.533813,214.279739 257.200684,212.313324 
M219.663437,212.420486 
	C223.583450,214.225998 227.503464,216.031494 231.690170,217.959839 
	C224.752869,205.136993 205.923309,203.896210 196.503540,215.352676 
	C203.969772,214.305832 211.405228,213.263306 219.663437,212.420486 
M201.589615,223.252975 
	C201.483139,223.334991 201.376663,223.417023 201.270187,223.499039 
	C201.367294,223.591766 201.460876,223.752823 201.562500,223.758057 
	C201.664688,223.763321 201.774872,223.613541 201.589615,223.252975 
z"/>
<path fill="#FACE16" opacity="1.000000" stroke="none" 
	d="
M342.270264,138.244934 
	C330.704926,155.134262 319.153931,172.033463 307.567719,188.908447 
	C302.304474,196.574203 296.971344,204.191986 291.517670,212.050888 
	C288.011810,206.984238 284.721313,202.228851 281.559418,197.659286 
	C301.264252,177.739456 321.049164,157.738678 341.331818,137.794510 
	C341.976440,137.982407 342.123352,138.113678 342.270264,138.244934 
z"/>
<path fill="#FACE16" opacity="1.000000" stroke="none" 
	d="
M138.245010,133.728790 
	C158.415070,147.586517 178.587845,161.440323 198.753098,175.305054 
	C203.117447,178.305771 207.454819,181.345764 212.026367,184.521729 
	C206.971069,188.060501 202.233627,191.376770 197.740295,194.522156 
	C177.739365,174.748764 157.726791,154.963852 137.781647,134.675797 
	C137.981049,134.024689 138.113037,133.876740 138.245010,133.728790 
z"/>
<path fill="#FACF16" opacity="1.000000" stroke="none" 
	d="
M133.773529,337.798370 
	C146.958328,318.595490 160.135971,299.387665 173.332550,280.192841 
	C176.993073,274.868500 180.709763,269.582764 184.556824,264.054962 
	C188.084457,269.098450 191.392014,273.827271 194.533478,278.318665 
	C174.765274,298.307892 154.985123,318.309235 134.704819,338.243469 
	C134.060959,338.050415 133.917252,337.924377 133.773529,337.798370 
z"/>
<path fill="#FACF16" opacity="1.000000" stroke="none" 
	d="
M337.791077,342.233704 
	C320.503845,330.381470 303.208191,318.541504 285.933380,306.671204 
	C278.683167,301.689209 271.477142,296.642975 264.046051,291.483673 
	C269.089478,287.977081 273.834534,284.677948 278.358673,281.532410 
	C298.286621,301.242218 318.288879,321.025543 338.230408,341.306122 
	C338.043488,341.946838 337.917267,342.090271 337.791077,342.233704 
z"/>
<path fill="#FACF16" opacity="1.000000" stroke="none" 
	d="
M251.944672,151.072845 
	C253.778122,161.426620 255.564453,171.351654 257.444672,181.798416 
	C251.274780,180.667542 245.827957,179.669205 240.085968,178.616760 
	C240.085968,148.762619 240.085968,118.921997 240.085968,89.081367 
	C240.255447,89.063126 240.424942,89.044884 240.594421,89.026642 
	C244.362137,109.565788 248.129852,130.104935 251.944672,151.072845 
z"/>
<path fill="#F9CE16" opacity="1.000000" stroke="none" 
	d="
M352.858856,246.923950 
	C333.191040,250.444641 313.951965,253.916962 294.192871,257.483154 
	C295.349976,251.262238 296.364166,245.809616 297.430847,240.074799 
	C327.280334,240.074799 357.098999,240.074799 386.917633,240.074799 
	C386.933624,240.249130 386.949646,240.423477 386.965637,240.597809 
	C375.739624,242.690399 364.513641,244.782990 352.858856,246.923950 
z"/>
<path fill="#FACF16" opacity="1.000000" stroke="none" 
	d="
M225.331146,331.619385 
	C223.059128,319.001495 220.896561,306.801270 218.658157,294.173035 
	C224.835236,295.341492 230.291626,296.373627 235.996307,297.452728 
	C235.996307,327.064728 235.996307,356.595062 235.996307,386.125397 
	C235.770142,386.155853 235.543976,386.186340 235.317795,386.216827 
	C232.025406,368.156891 228.733017,350.096954 225.331146,331.619385 
z"/>
<path fill="#FACF16" opacity="1.000000" stroke="none" 
	d="
M161.374649,222.301544 
	C168.291595,221.063324 174.790314,219.932114 181.802734,218.711487 
	C180.689529,224.741028 179.685822,230.177475 178.621780,235.940643 
	C149.115952,235.940643 119.591820,235.940643 90.067680,235.940643 
	C90.033623,235.741623 89.999565,235.542603 89.965508,235.343582 
	C113.629143,231.031906 137.292770,226.720230 161.374649,222.301544 
z"/>
<path fill="#F7CC15" opacity="1.000000" stroke="none" 
	d="
M209.957489,296.968384 
	C208.687027,299.989166 207.529480,303.063446 206.127579,306.021973 
	C197.852768,323.484955 193.494385,342.006989 190.926163,361.052277 
	C190.261993,365.977661 189.079926,370.837982 188.014618,375.701660 
	C187.696579,377.153687 186.967163,378.515594 186.467117,379.812744 
	C185.795624,370.917786 185.051788,362.296478 184.513428,353.662415 
	C183.550278,338.215881 187.225296,323.615112 193.300507,309.598663 
	C194.246872,307.415314 197.006180,305.922516 199.111481,304.358551 
	C202.448471,301.879578 205.941040,299.610016 209.677521,297.122253 
	C209.987259,296.992645 209.957489,296.968384 209.957489,296.968384 
z"/>
<path fill="#F7CC15" opacity="1.000000" stroke="none" 
	d="
M168.528336,205.417572 
	C145.466354,194.037964 120.227814,192.564575 94.635223,186.924637 
	C117.834167,182.461517 139.412689,183.797302 158.608429,189.971756 
	C164.924454,192.003326 170.011810,194.959412 173.151215,201.033188 
	C174.663422,203.958817 176.851807,206.534927 178.270676,210.073318 
	C175.135605,208.579285 172.000519,207.085251 168.528336,205.417572 
z"/>
<path fill="#F7CC15" opacity="1.000000" stroke="none" 
	d="
M134.770996,279.745422 
	C123.404327,286.699066 113.984756,296.061768 101.371353,301.933105 
	C106.666115,295.924591 111.466858,290.893738 115.793518,285.483704 
	C126.171478,272.507172 139.665970,263.929840 154.630157,257.368652 
	C156.057327,256.742889 157.868088,256.477081 159.403122,256.704163 
	C165.088684,257.545349 170.733322,258.663116 176.430313,260.150421 
	C161.800293,265.075684 147.880478,271.125427 134.770996,279.745422 
z"/>
<path fill="#F8CC15" opacity="1.000000" stroke="none" 
	d="
M266.526367,177.569183 
	C271.514191,163.675125 277.153473,149.970627 281.270569,135.823151 
	C284.224854,125.671463 285.096924,114.918938 287.004974,104.453972 
	C287.469818,101.904404 288.355377,99.431534 289.283875,96.066704 
	C293.326080,120.626656 291.980316,140.980850 285.797485,159.203781 
	C283.791443,165.116333 281.013214,170.012497 275.274963,172.994568 
	C272.635986,174.366013 270.295044,176.310898 267.333679,177.925552 
	C266.848419,177.855347 266.526337,177.569183 266.526367,177.569183 
z"/>
<path fill="#F8CC15" opacity="1.000000" stroke="none" 
	d="
M296.968811,266.042206 
	C303.025177,268.654968 309.056641,271.327332 315.142731,273.868927 
	C331.539124,280.716217 348.954529,283.268890 366.335449,286.001495 
	C370.662170,286.681732 374.911530,287.854218 379.108734,289.143463 
	C356.807465,291.010468 334.455170,293.931000 313.209442,284.170380 
	C310.224579,282.799103 307.392273,280.548523 305.232727,278.059875 
	C302.203918,274.569489 299.872009,270.474365 297.117737,266.325012 
	C296.993500,266.012085 296.968811,266.042206 296.968811,266.042206 
z"/>
<path fill="#F7CC15" opacity="1.000000" stroke="none" 
	d="
M267.762360,319.203217 
	C274.593597,334.915588 284.340485,348.354889 294.206177,361.738770 
	C296.983337,365.506317 299.272797,369.633331 301.124969,373.798309 
	C295.157013,368.515503 289.268555,363.139404 283.204224,357.969666 
	C271.280365,347.804871 263.386932,334.868622 257.271210,320.693359 
	C256.772736,319.537964 256.458954,318.098175 256.651245,316.884308 
	C257.553955,311.186127 258.663666,305.520752 259.940216,298.524078 
	C262.819031,306.156097 265.213928,312.505157 267.762360,319.203217 
z"/>
<path fill="#F7CC15" opacity="1.000000" stroke="none" 
	d="
M372.395569,176.474823 
	C368.387482,180.901703 364.200134,185.180786 360.405334,189.783493 
	C349.567627,202.928574 335.883026,212.074493 320.416412,218.791809 
	C319.522461,219.180054 318.458282,219.639969 317.566498,219.494629 
	C311.588501,218.520432 305.635834,217.391159 299.655884,215.851929 
	C316.988068,210.286118 332.975342,202.448547 347.702240,192.017670 
	C355.426636,186.546539 363.289551,181.270966 371.586853,176.006470 
	C372.083801,176.105865 372.395538,176.474808 372.395569,176.474823 
z"/>
<path fill="#F7CB15" opacity="1.000000" stroke="none" 
	d="
M177.238632,104.775993 
	C185.419342,112.538948 194.373596,119.655647 201.555954,128.252670 
	C208.290359,136.313522 213.175522,145.924667 218.795959,154.902771 
	C219.375046,155.827820 219.813568,157.152664 219.645493,158.182327 
	C218.664017,164.195541 217.482178,170.176056 215.544281,176.287659 
	C213.812973,171.469620 212.142624,166.628632 210.339584,161.837585 
	C203.343079,143.246613 191.559555,127.543671 180.037384,111.680481 
	C178.777252,109.945587 177.789215,108.013069 176.774353,105.659531 
	C176.995346,105.023239 177.116989,104.899612 177.238632,104.775993 
z"/>
<path fill="#F7CB15" opacity="1.000000" stroke="none" 
	d="
M176.683777,105.324631 
	C175.786270,104.529243 175.078705,103.556091 174.371140,102.582939 
	C174.589417,102.397278 174.807693,102.211617 175.025970,102.025955 
	C175.699234,102.743698 176.372513,103.461449 177.142212,104.477600 
	C177.116989,104.899612 176.995346,105.023239 176.683777,105.324631 
z"/>
<path fill="#FACE16" opacity="1.000000" stroke="none" 
	d="
M341.624298,137.638550 
	C341.740051,136.986755 342.061066,136.547501 342.763245,136.130539 
	C343.144409,136.152832 343.399689,136.417343 343.399689,136.417343 
	C343.172485,136.917038 342.945312,137.416733 342.494171,138.080688 
	C342.123352,138.113678 341.976440,137.982407 341.624298,137.638550 
z"/>
<path fill="#FACE16" opacity="1.000000" stroke="none" 
	d="
M136.386414,132.614151 
	C136.893295,132.837189 137.400177,133.060226 138.076035,133.506027 
	C138.113037,133.876740 137.981049,134.024689 137.629639,134.380630 
	C136.969803,134.270767 136.529419,133.952927 136.108383,133.253357 
	C136.127747,132.871643 136.386414,132.614151 136.386414,132.614151 
z"/>
<path fill="#F7CC15" opacity="1.000000" stroke="none" 
	d="
M371.926208,175.922852 
	C372.308655,175.587082 372.848663,175.434341 373.388672,175.281586 
	C373.221405,175.601883 373.054138,175.922150 372.641205,176.358612 
	C372.395538,176.474808 372.083801,176.105865 371.926208,175.922852 
z"/>
<path fill="#FACF16" opacity="1.000000" stroke="none" 
	d="
M134.403320,338.383179 
	C134.291748,339.038422 133.981522,339.486877 133.281982,339.915527 
	C132.892670,339.895691 132.619308,339.623077 132.619324,339.623077 
	C132.849777,339.119598 133.080246,338.616119 133.542114,337.955505 
	C133.917252,337.924377 134.060959,338.050415 134.403320,338.383179 
z"/>
<path fill="#FACF16" opacity="1.000000" stroke="none" 
	d="
M338.375916,341.604401 
	C339.027679,341.719940 339.473175,342.034454 339.896881,342.737885 
	C339.875061,343.126801 339.604248,343.400696 339.604248,343.400696 
	C339.103882,343.166168 338.603485,342.931671 337.947083,342.465424 
	C337.917267,342.090271 338.043488,341.946838 338.375916,341.604401 
z"/>
<path fill="#FACF16" opacity="1.000000" stroke="none" 
	d="
M340.013489,342.992950 
	C340.323669,343.141113 340.495361,343.423126 340.667084,343.705139 
	C340.431915,343.725891 340.196777,343.746613 339.782928,343.584045 
	C339.604248,343.400696 339.875061,343.126801 340.013489,342.992950 
z"/>
<path fill="#FACF16" opacity="1.000000" stroke="none" 
	d="
M133.027161,340.034180 
	C132.873444,340.344604 132.585220,340.516571 132.296997,340.688538 
	C132.278381,340.451508 132.259781,340.214508 132.430237,339.800293 
	C132.619308,339.623077 132.892670,339.895691 133.027161,340.034180 
z"/>
<path fill="#F7CC15" opacity="1.000000" stroke="none" 
	d="
M209.996552,297.008728 
	C210.077637,296.993103 210.149445,296.961395 210.089371,296.949036 
	C209.957489,296.968384 209.987259,296.992645 209.996552,297.008728 
z"/>
<path fill="#F8CC15" opacity="1.000000" stroke="none" 
	d="
M297.009827,266.002441 
	C296.932739,265.924652 296.839294,265.856476 296.745880,265.788330 
	C296.807007,265.782715 296.868164,265.777130 296.949036,265.906860 
	C296.968811,266.042206 296.993500,266.012085 297.009827,266.002441 
z"/>
<path fill="#F8CC15" opacity="1.000000" stroke="none" 
	d="
M266.999237,178.009186 
	C266.914856,178.349365 266.679657,178.535721 266.444458,178.722076 
	C266.367584,178.456146 266.290710,178.190216 266.370087,177.746735 
	C266.526337,177.569183 266.848419,177.855347 266.999237,178.009186 
z"/>
<path fill="#FACE16" opacity="1.000000" stroke="none" 
	d="
M344.029694,135.029205 
	C343.957306,135.372696 343.884918,135.716187 343.606110,136.238510 
	C343.399689,136.417343 343.144409,136.152832 343.018433,136.018433 
	C343.087524,135.611801 343.282562,135.339554 343.742188,135.037018 
	C344.006744,135.006744 344.029694,135.029205 344.029694,135.029205 
z"/>
<path fill="#FACE16" opacity="1.000000" stroke="none" 
	d="
M343.996704,134.995728 
	C344.150665,134.736420 344.314667,134.488144 344.478638,134.239868 
	C344.490173,134.501129 344.501740,134.762421 344.271484,135.026459 
	C344.029694,135.029205 344.006744,135.006744 343.996704,134.995728 
z"/>
<path fill="#FACE16" opacity="1.000000" stroke="none" 
	d="
M135.996124,132.998047 
	C135.688660,132.843719 135.512817,132.562988 135.336960,132.282257 
	C135.571121,132.266174 135.805298,132.250092 136.212936,132.424072 
	C136.386414,132.614151 136.127747,132.871643 135.996124,132.998047 
z"/>
<path fill="#894F02" opacity="1.000000" stroke="none" 
	d="
M220.358643,227.358490 
	C222.096207,226.619308 223.833771,225.880096 226.054153,224.935486 
	C226.132156,229.522247 222.826340,229.775269 220.464096,230.389038 
	C212.458282,232.469086 206.062378,230.757507 203.440857,221.772461 
	C210.895340,214.398819 225.377411,215.344788 227.684097,224.125076 
	C225.927887,223.004135 224.494461,222.089218 222.875198,221.055695 
	C221.933502,222.864258 221.050003,224.561020 219.814087,226.680252 
	C219.499619,227.345535 219.537582,227.588333 219.575546,227.831146 
	C219.836578,227.673584 220.097610,227.516037 220.358643,227.358490 
z"/>
<path fill="#864C02" opacity="1.000000" stroke="none" 
	d="
M268.966736,227.976044 
	C261.767181,232.947449 251.471313,231.674179 250.058350,224.846481 
	C252.004913,225.751343 253.516678,226.454102 255.506805,227.404449 
	C256.244843,227.596191 256.504517,227.540298 256.764191,227.484406 
	C256.537964,227.297226 256.311768,227.110046 256.085541,226.922867 
	C255.146210,225.037125 254.206909,223.151367 253.131577,220.992569 
	C251.655807,222.002274 250.216537,222.987000 248.777267,223.971725 
	C248.408554,223.552216 248.039825,223.132706 247.671112,222.713196 
	C249.568756,221.141357 251.231262,218.802933 253.406418,218.135712 
	C261.167511,215.754990 268.489258,216.529358 273.077728,221.546951 
	C272.216949,223.334030 271.407806,225.013916 270.302307,226.848267 
	C270.005951,227.002701 270.036255,227.031036 269.992554,226.624634 
	C269.227570,224.351959 268.506348,222.485703 267.785095,220.619446 
	C267.223846,220.860977 266.662567,221.102524 266.101318,221.344055 
	C267.837738,223.290802 262.928375,227.715027 269.015015,228.018982 
	C269.000183,228.003433 268.966736,227.976044 268.966736,227.976044 
z"/>
<path fill="#884D02" opacity="1.000000" stroke="none" 
	d="
M217.894028,266.035736 
	C216.867767,265.347382 215.841522,264.659058 214.292480,263.620056 
	C230.248642,257.998505 245.573639,258.094971 261.402740,263.423584 
	C260.369415,264.564331 259.425873,265.606018 257.911804,266.475830 
	C256.090912,266.166687 254.840515,266.029388 253.328857,265.624329 
	C242.821213,265.533417 232.574829,265.710327 221.887268,265.920776 
	C220.262070,265.981445 219.078049,266.008575 217.894028,266.035736 
z"/>
<path fill="#8A5003" opacity="1.000000" stroke="none" 
	d="
M218.022980,253.016815 
	C218.520676,252.384888 218.924927,251.321701 219.531067,251.190384 
	C223.760925,250.273941 225.680695,247.223923 227.105499,243.568115 
	C227.298447,243.072983 228.015320,242.782043 228.776459,242.163391 
	C228.449265,244.096481 228.190186,245.627106 227.946335,247.067734 
	C234.658844,250.388107 241.122925,251.340668 247.953918,246.749802 
	C247.781097,245.818146 247.498337,244.293945 247.276062,243.095718 
	C250.653366,246.074890 254.212952,249.214874 257.890442,252.673248 
	C258.008301,252.991669 258.035156,252.966156 258.035156,252.966156 
	C255.947159,252.618210 253.857101,252.282013 251.771973,251.917664 
	C250.631210,251.718323 249.233917,250.925797 248.403030,251.329193 
	C238.748856,256.016144 228.392502,248.795792 218.381805,253.083069 
	C217.990555,252.990250 218.022995,253.016815 218.022980,253.016815 
z"/>
<path fill="#854A02" opacity="1.000000" stroke="none" 
	d="
M218.015518,266.364075 
	C219.078049,266.008575 220.262070,265.981445 222.241379,265.989014 
	C233.238266,269.953217 243.422241,269.793762 253.590103,265.892090 
	C254.840515,266.029388 256.090912,266.166687 257.628906,266.541321 
	C244.638016,275.337891 231.377884,275.461334 218.015518,266.364075 
z"/>
<path fill="#844901" opacity="1.000000" stroke="none" 
	d="
M256.797668,212.432983 
	C252.533813,214.279739 248.673019,216.006836 244.930832,217.680847 
	C248.904083,205.226227 268.541443,203.702042 279.600433,215.307419 
	C272.051453,214.298370 264.626068,213.305847 256.797668,212.432983 
z"/>
<path fill="#834801" opacity="1.000000" stroke="none" 
	d="
M219.252060,212.320618 
	C211.405228,213.263306 203.969772,214.305832 196.503540,215.352676 
	C205.923309,203.896210 224.752869,205.136993 231.690170,217.959839 
	C227.503464,216.031494 223.583450,214.225998 219.252060,212.320618 
z"/>
<path fill="#864C02" opacity="1.000000" stroke="none" 
	d="
M269.992493,226.986694 
	C269.814178,227.267334 269.649323,227.563980 269.225586,227.918335 
	C268.966736,227.976044 269.000183,228.003433 269.028015,227.733780 
	C269.382629,227.319763 269.709442,227.175400 270.036255,227.031036 
	C270.036255,227.031036 270.005951,227.002701 269.992493,226.986694 
z"/>
<path fill="#8A5003" opacity="1.000000" stroke="none" 
	d="
M257.994446,253.003235 
	C258.179840,253.161880 258.379120,253.308945 258.578400,253.456024 
	C258.371979,253.424911 258.165588,253.393814 257.997162,253.164429 
	C258.035156,252.966156 258.008301,252.991669 257.994446,253.003235 
z"/>
<path fill="#8A5003" opacity="1.000000" stroke="none" 
	d="
M217.975159,252.975708 
	C217.900528,253.181122 217.841278,253.401077 217.782028,253.621048 
	C217.742310,253.462402 217.702591,253.303757 217.842941,253.080963 
	C218.022995,253.016815 217.990555,252.990250 217.975159,252.975708 
z"/>
<path fill="#894F02" opacity="1.000000" stroke="none" 
	d="
M201.735580,223.392334 
	C201.774872,223.613541 201.664688,223.763321 201.562500,223.758057 
	C201.460876,223.752823 201.367294,223.591766 201.270187,223.499054 
	C201.376663,223.417023 201.483139,223.334991 201.735580,223.392334 
z"/>
<path fill="#FACF16" opacity="1.000000" stroke="none" 
	d="
M220.242432,227.243164 
	C220.097610,227.516037 219.836578,227.673584 219.575546,227.831146 
	C219.537582,227.588333 219.499619,227.345535 219.675766,227.001953 
	C219.889862,226.901199 220.126236,227.127823 220.242432,227.243164 
z"/>
<path fill="#E9BB13" opacity="1.000000" stroke="none" 
	d="
M269.992554,226.624634 
	C269.709442,227.175400 269.382629,227.319763 269.042847,227.749329 
	C262.928375,227.715027 267.837738,223.290802 266.101318,221.344055 
	C266.662567,221.102524 267.223846,220.860977 267.785095,220.619446 
	C268.506348,222.485703 269.227570,224.351959 269.992554,226.624634 
z"/>
<path fill="#FACF16" opacity="1.000000" stroke="none" 
	d="
M255.997040,227.007843 
	C256.311768,227.110046 256.537964,227.297226 256.764191,227.484406 
	C256.504517,227.540298 256.244843,227.596191 255.858917,227.458008 
	C255.732635,227.263962 255.908539,227.092834 255.997040,227.007843 
z"/>
<path fill="#F1C514" opacity="1.000000" stroke="none" 
	d="
M253.328857,265.624329 
	C243.422241,269.793762 233.238266,269.953217 222.682556,265.955475 
	C232.574829,265.710327 242.821213,265.533417 253.328857,265.624329 
z"/>
</svg>