<svg xmlns="http://www.w3.org/2000/svg" fill="none" viewBox="0 0 128 128">
    <!-- Semilla -->
    <ellipse cx="64" cy="75" rx="12" ry="18" fill="#8B4513" transform="rotate(-15 64 75)"/>
    
    <!-- Brote principal -->
    <path d="M64 57 C64 57 66 45 68 35 C70 25 75 20 80 20 C85 20 90 25 88 35 C86 45 84 50 80 55" 
          stroke="#228B22" stroke-width="3" fill="none" stroke-linecap="round"/>
    
    <!-- Hoja izquierda -->
    <path d="M68 35 C68 35 55 30 45 25 C35 20 30 15 35 10 C40 5 50 8 60 15 C65 20 68 30 68 35" 
          fill="#32CD32"/>
    
    <!-- Hoja derecha -->  
    <path d="M80 45 C80 45 95 42 105 40 C115 38 120 35 118 28 C116 21 108 20 98 25 C88 30 82 40 80 45" 
          fill="#32CD32"/>
    
    <!-- Raíces -->
    <path d="M58 85 C58 85 52 95 48 105 C44 115 45 120 50 118 C55 116 58 108 60 98" 
          stroke="#8B4513" stroke-width="2" fill="none" stroke-linecap="round"/>
    <path d="M70 85 C70 85 78 98 82 108 C86 118 85 123 80 121 C75 119 72 111 70 101" 
          stroke="#8B4513" stroke-width="2" fill="none" stroke-linecap="round"/>
    
    <style>
        @media (prefers-color-scheme: dark) {
            ellipse { fill: #A0522D; }
            path[stroke="#228B22"] { stroke: #32CD32; }
            path[fill="#32CD32"] { fill: #90EE90; }
            path[stroke="#8B4513"] { stroke: #D2691E; }
        }
    </style>
</svg>
